<?xml version="1.0" encoding="UTF-8"?>
<svg version="1.1" xmlns="http://www.w3.org/2000/svg" width="1024" height="1024">
<path d="M0 0 C0.61101563 0.36996094 1.22203125 0.73992187 1.8515625 1.12109375 C3.429375 1.95640625 3.429375 1.95640625 5.0390625 2.80859375 C12.31640496 8.79218644 15.83719742 16.84364235 16.8515625 26.12109375 C16.67665409 35.98592785 13.81895787 44.18171 6.7734375 51.1875 C-1.58957674 58.1907934 -9.4075977 59.83714974 -20.1484375 59.12109375 C-23.7784375 58.13109375 -27.4084375 57.14109375 -31.1484375 56.12109375 C-85.1034375 110.07609375 -85.1034375 110.07609375 -140.1484375 165.12109375 C-139.1584375 168.75109375 -138.1684375 172.38109375 -137.1484375 176.12109375 C-136.3910376 185.64269251 -137.78917893 194.19825952 -143.7734375 201.93359375 C-149.3344193 207.82085765 -156.44271271 211.78692703 -164.50390625 212.359375 C-175.96455942 212.58134484 -182.83587797 210.67567439 -191.421875 202.90234375 C-196.1484375 198.02607113 -196.1484375 198.02607113 -196.1484375 195.12109375 C-218.64171466 198.83864811 -241.13459225 202.55861539 -263.62717438 206.28037262 C-267.25380856 206.88045664 -270.88045182 207.48048573 -274.50710297 208.08046722 C-328.90609843 217.07421197 -328.90609843 217.07421197 -383.28515625 226.1875 C-384.3641538 226.36964365 -385.44315136 226.5517873 -386.55484581 226.73945045 C-396.22247364 228.37208293 -405.88926817 230.00954878 -415.55461979 231.65560436 C-418.90501551 232.22589156 -422.25569075 232.79452481 -425.60640907 233.36291313 C-427.82071966 233.73936534 -430.03454027 234.11860063 -432.24833679 234.49806213 C-433.52908585 234.71542526 -434.8098349 234.93278839 -436.12939453 235.15673828 C-437.23026398 235.34479034 -438.33113342 235.53284241 -439.46536255 235.72659302 C-442.1484375 236.12109375 -442.1484375 236.12109375 -445.1484375 236.12109375 C-445.1896875 237.23484375 -445.2309375 238.34859375 -445.2734375 239.49609375 C-446.26192903 247.04336016 -450.59476628 253.16461165 -456.2734375 258.05859375 C-463.99190075 263.53663059 -472.43591887 264.6858583 -481.67578125 263.640625 C-484.1484375 263.12109375 -484.1484375 263.12109375 -486.71484375 262.0078125 C-489.51981627 260.98577596 -490.39003655 261.14689612 -493.1484375 262.12109375 C-495.42689898 264.11687309 -497.54408555 266.12543528 -499.66571045 268.27760315 C-500.31841297 268.9277424 -500.9711155 269.57788165 -501.64359689 270.24772209 C-503.83567695 272.43484851 -506.01684127 274.63254829 -508.19824219 276.83032227 C-509.76467048 278.39759649 -511.3317591 279.96421098 -512.89945984 281.5302124 C-517.15996377 285.78985363 -521.41113801 290.05869851 -525.66073895 294.32921338 C-530.10101496 298.78821011 -534.54975624 303.23874428 -538.99761963 307.69017029 C-546.46402693 315.1648503 -553.92517284 322.64475026 -561.38232422 330.12866211 C-569.06337963 337.83725278 -576.74757828 345.54268762 -584.43603516 353.24389648 C-584.90991656 353.71856606 -585.38379796 354.19323563 -585.87203941 354.68228913 C-588.24937256 357.06353738 -590.62676775 359.4447237 -593.00419378 361.82587922 C-612.72842977 381.58149494 -632.44193634 401.34778839 -652.1484375 421.12109375 C-651.93695068 421.85134766 -651.72546387 422.58160156 -651.50756836 423.33398438 C-651.23307861 424.30529297 -650.95858887 425.27660156 -650.67578125 426.27734375 C-650.40241943 427.23447266 -650.12905762 428.19160156 -649.84741211 429.17773438 C-647.5700502 438.7676314 -649.24820863 447.77103362 -654.3984375 456.15625 C-658.80539 461.8527369 -665.95312103 466.92842745 -673.1484375 468.12109375 C-684.47173586 468.92519294 -692.53795406 468.11654344 -701.4609375 460.74609375 C-707.30598359 455.29614024 -710.72344904 449.61312293 -711.484375 441.5703125 C-711.56536571 433.77090711 -711.22095815 427.84713832 -707.1484375 421.12109375 C-706.313125 419.54328125 -706.313125 419.54328125 -705.4609375 417.93359375 C-700.17728599 411.5075311 -692.48373717 407.26461837 -684.2109375 406.30859375 C-679.3481696 405.85481274 -676.31327839 406.78758964 -671.78881836 408.49713135 C-668.23976099 409.2710362 -665.59374256 409.82071421 -662.23573685 408.19522381 C-656.8409993 404.46020173 -652.38823392 399.60806693 -647.83984375 394.91699219 C-646.26174804 393.35211562 -644.68000254 391.79091239 -643.09490967 390.23312378 C-638.80822527 385.99826116 -634.57662018 381.7120269 -630.35440445 377.41300488 C-625.92845034 372.92163728 -621.45869604 368.47424182 -616.99487305 364.02056885 C-609.50784474 356.53701701 -602.05501478 349.02056156 -594.62304688 341.48242188 C-586.97852914 333.72872878 -579.30145089 326.00923562 -571.58789062 318.32421875 C-562.2858443 309.05647766 -553.01160999 299.76170611 -543.76266479 290.4409256 C-540.23140755 286.8828991 -536.69007122 283.3353721 -533.14041138 279.7957077 C-528.96451626 275.62821742 -524.81713439 271.4342792 -520.69034576 267.21817398 C-519.17039498 265.67406284 -517.64097867 264.13920493 -516.10167694 262.6143837 C-514.0038657 260.53314912 -511.94288521 258.42123631 -509.88793945 256.29779053 C-509.26911172 255.69940801 -508.65028399 255.1010255 -508.0127039 254.48451018 C-506.35614507 252.72946477 -505.14426761 251.3215028 -504.1484375 249.12109375 C-504.24508277 245.89709934 -505.12750788 243.15790086 -506.1484375 240.12109375 C-507.96725358 231.46673259 -506.51800396 223.46529893 -502.2734375 215.68359375 C-497.27326821 209.65397785 -491.19216432 203.50695787 -483.1484375 202.12109375 C-472.60437705 201.36440235 -463.43562812 201.85436447 -454.7734375 208.49609375 C-452.07510913 211.19442212 -450.05604383 213.81946741 -448.1484375 217.12109375 C-448.1484375 217.78109375 -448.1484375 218.44109375 -448.1484375 219.12109375 C-431.10114406 216.34183544 -414.05471762 213.55728353 -397.00895691 210.76864052 C-395.64793635 210.54598367 -394.28691341 210.32334132 -392.92588806 210.10071373 C-358.70173066 204.50248691 -324.48471419 198.86396548 -290.28515625 193.1171875 C-289.56056158 192.995436 -288.83596692 192.87368451 -288.08941483 192.74824357 C-273.27336467 190.25845158 -258.45845377 187.7619261 -243.6445055 185.25965977 C-238.44876959 184.38207801 -233.25281913 183.50576841 -228.05687904 182.62939644 C-224.47667288 182.02492772 -220.89679704 181.4185306 -217.31694031 180.81199646 C-215.18266173 180.45172965 -213.04836996 180.09154098 -210.9140625 179.73144531 C-209.9438104 179.56645696 -208.97355829 179.4014686 -207.97390461 179.2314806 C-206.65699273 179.00985516 -206.65699273 179.00985516 -205.31347656 178.78375244 C-204.55198303 178.65486759 -203.7904895 178.52598274 -203.00592041 178.39319229 C-201.1484375 178.12109375 -201.1484375 178.12109375 -199.1484375 178.12109375 C-199.0865625 177.15171875 -199.0246875 176.18234375 -198.9609375 175.18359375 C-197.80475691 167.15546655 -192.70383872 160.55516544 -186.37109375 155.78125 C-178.01720984 150.07414119 -169.98066399 149.46232357 -160.1484375 151.12109375 C-158.4187397 151.92722862 -158.4187397 151.92722862 -156.65409851 152.74964905 C-154.48917265 153.39274744 -154.48917265 153.39274744 -152.1484375 153.12109375 C-147.94992199 150.54150951 -144.63181062 147.03456737 -141.18676758 143.54858398 C-140.10884641 142.49404105 -139.02886558 141.44159992 -137.94699097 140.39111328 C-135.01647043 137.53183581 -132.11887861 134.64123045 -129.22822022 131.74172091 C-126.81143648 129.32255818 -124.38018289 126.91819852 -121.94912642 124.51339298 C-116.21267875 118.83761815 -110.50366352 113.1352277 -104.81030273 107.41625977 C-98.94033837 101.52094364 -93.02419195 95.67509313 -87.083453 89.85117763 C-81.98183206 84.84624778 -76.91175716 79.81082274 -71.86540145 74.75017697 C-68.85222432 71.72924405 -65.82833319 68.72149627 -62.77308083 65.7430706 C-59.89900868 62.93879572 -57.06635837 60.09833755 -54.26052475 57.22583771 C-53.22666165 56.18043937 -52.17906402 55.1484149 -51.11707497 54.13160133 C-47.8975079 51.03953464 -45.12811841 48.1425465 -43.1484375 44.12109375 C-43.25037012 39.39790822 -44.5321817 35.52104486 -46.1484375 31.12109375 C-47.0388131 22.36573365 -43.99170592 14.24565011 -38.953125 7.1640625 C-29.481341 -3.55832501 -12.68909141 -6.86731726 0 0 Z " fill="#C9A84B" transform="translate(885.1484375,176.87890625)"/>
</svg>
